{"title":"Lake.Placid.vs.Anaconda.2015.UNRATED.DVDRip.XViD.AC3-Sorrow","uid":12160149,"size":1472221298,"categoryP":"video","categoryS":"movies","magnet":"?xt=urn:btih:2d539fc6ef49922e985d9dd14ed27c14816d32ef&amp;dn=Lake.Placid.vs.Anaconda.2015.UNRATED.DVDRip.XViD.AC3-Sorrow&amp;tr=udp%3A%2F%2Ftracker.openbittorrent.com%3A80&amp;tr=udp%3A%2F%2Fopen.demonii.com%3A1337&amp;tr=udp%3A%2F%2Ftracker.coppersurfer.tk%3A6969&amp;tr=udp%3A%2F%2Fexodus.desync.com%3A6969","seeders":2,"leechers":0,"uploader":null,"files":2,"time":1437876792,"description":"Lake Placid vs Anaconda 2015 UNRATED DVDRip XViD AC3-Sorrow\n\nGeneral\nComplete name                            : Lake.Placid.vs.Anaconda.2015.UNRATED.DVDRip.XViD.AC3-Sorrow.avi\nFormat                                   : AVI\nFormat/Info                              : Audio Video Interleave\nFile size                                : 1.37 GiB\nDuration                                 : 1h 32mn\nOverall bit rate                         : 2 130 Kbps\nWriting application                      : Lavf55.19.104\nWriting library                          : \n\nVideo\nID                                       : 0\nFormat                                   : MPEG-4 Visual\nFormat profile                           : Simple@L3\nFormat settings, BVOP                    : No\nFormat settings, QPel                    : No\nFormat settings, GMC                     : No warppoints\nFormat settings, Matrix                  : Default (H.263)\nCodec ID                                 : XVID\nCodec ID/Hint                            : XviD\nDuration                                 : 1h 32mn\nBit rate                                 : 1 672 Kbps\nWidth                                    : 720 pixels\nHeight                                   : 400 pixels\nDisplay aspect ratio                     : 16:9\nFrame rate                               : 23.976 fps\nColor space                              : YUV\nChroma subsampling                       : 4:2:0\nBit depth                                : 8 bits\nScan type                                : Progressive\nCompression mode                         : Lossy\nBits/(Pixel*Frame)                       : 0.242\nStream size                              : 1.08 GiB (78%)\nWriting library                          : XviD 64\n\nAudio\nID                                       : 1\nFormat                                   : AC-3\nFormat/Info                              : Audio Coding 3\nMode extension                           : CM (complete main)\nFormat settings, Endianness              : Big\nCodec ID                                 : 2000\nDuration                                 : 1h 32mn\nBit rate mode                            : Constant\nBit rate                                 : 448 Kbps\nChannel count                            : 2 channels\nChannel positions                        : Front: L R\nSampling rate                            : 48.0 KHz\nBit depth                                : 16 bits\nCompression mode                         : Lossy\nStream size                              : 295 MiB (21%)\nAlignment                                : Aligned on interleaves\nInterleave, duration                     : 32 ms (0.77 video frame)\nInterleave, preload duration             : 512 ms\n\n\n\nAction:Horror\n\nA giant crocodile goes head to head with a giant Anaconda. The town sheriff must find a way to destroy the two monsters before they kill the whole town.\n\n\nDirector: A.B. Stone \n\nWriter: Berkeley Anderson \n\nStars: Corin Nemec, Yancy Butler, Stephen Billington\n &lt;a href=&quot;\nhttp://www.imdb.com/title/tt4497416/&quot; rel=&quot;nofollow&quot; target=&quot;_NEW&quot;&gt;\nhttp://www.imdb.com/title/tt4497416/&lt;/a&gt;","torrent":{"xt":"urn:btih:2d539fc6ef49922e985d9dd14ed27c14816d32ef","amp;dn":"Lake.Placid.vs.Anaconda.2015.UNRATED.DVDRip.XViD.AC3-Sorrow","amp;tr":["udp%3A%2F%2Ftracker.openbittorrent.com%3A80","udp%3A%2F%2Fopen.demonii.com%3A1337","udp%3A%2F%2Ftracker.coppersurfer.tk%3A6969","udp%3A%2F%2Fexodus.desync.com%3A6969"],"infoHash":"2d539fc6ef49922e985d9dd14ed27c14816d32ef","infoHashBuffer":{"type":"Buffer","data":[45,83,159,198,239,73,146,46,152,93,157,209,78,210,124,20,129,109,50,239]},"announce":[],"urlList":[]}}